HIERARCHY
ROOT root
{
	OFFSET 0.000000 0.000000 0.000000
	CHANNELS 6 Xposition Yposition Zposition Zrotation Yrotation Xrotation
	JOINT lhip
	{
		OFFSET 0.058581 -0.082280 -0.017664
		CHANNELS 3 Zrotation Yrotation Xrotation
		JOINT lknee
		{
			OFFSET 0.043451 -0.386469 0.008037
			CHANNELS 3 Zrotation Yrotation Xrotation
			JOINT lankle
			{
				OFFSET -0.014790 -0.426874 -0.037428
				CHANNELS 3 Zrotation Yrotation Xrotation
				JOINT ltoe
				{
					OFFSET 0.041054 -0.060286 0.122042
					CHANNELS 3 Zrotation Yrotation Xrotation
					End Site
					{
						OFFSET 0.000000 0.000000 0.000000
					}
				}
			}
		}
	}
	JOINT rhip
	{
		OFFSET -0.060310 -0.090513 -0.013543
		CHANNELS 3 Zrotation Yrotation Xrotation
		JOINT rknee
		{
			OFFSET -0.043257 -0.383688 -0.004843
			CHANNELS 3 Zrotation Yrotation Xrotation
			JOINT rankle
			{
				OFFSET 0.019056 -0.420046 -0.034562
				CHANNELS 3 Zrotation Yrotation Xrotation
				JOINT rtoe
				{
					OFFSET -0.034840 -0.062106 0.130323
					CHANNELS 3 Zrotation Yrotation Xrotation
					End Site
					{
						OFFSET 0.000000 0.000000 0.000000
					}
				}
			}
		}
	}
	JOINT lowerback
	{
		OFFSET 0.004439 0.124404 -0.038385
		CHANNELS 3 Zrotation Yrotation Xrotation
		JOINT upperback
		{
			OFFSET 0.004488 0.137956 0.026820
			CHANNELS 3 Zrotation Yrotation Xrotation
			JOINT chest
			{
				OFFSET -0.002265 0.056032 0.002855
				CHANNELS 3 Zrotation Yrotation Xrotation
				JOINT lowerneck
				{
					OFFSET -0.013390 0.211636 -0.033468
					CHANNELS 3 Zrotation Yrotation Xrotation
					JOINT upperneck
					{
						OFFSET 0.010113 0.088937 0.050410
						CHANNELS 3 Zrotation Yrotation Xrotation
						End Site
						{
							OFFSET 0.000000 0.000000 0.000000
						}
					}
				}
				JOINT lclavicle
				{
					OFFSET 0.071702 0.114000 -0.018898
					CHANNELS 3 Zrotation Yrotation Xrotation
					JOINT lshoulder
					{
						OFFSET 0.122921 0.045205 -0.019046
						CHANNELS 3 Zrotation Yrotation Xrotation
						JOINT lelbow
						{
							OFFSET 0.255332 -0.015649 -0.022946
							CHANNELS 3 Zrotation Yrotation Xrotation
							JOINT lwrist
							{
								OFFSET 0.265709 0.012698 -0.007375
								CHANNELS 3 Zrotation Yrotation Xrotation
								End Site
								{
									OFFSET 0.000000 0.000000 0.000000
								}
							}
						}
					}
				}
				JOINT rclavicle
				{
					OFFSET -0.082954 0.112472 -0.023707
					CHANNELS 3 Zrotation Yrotation Xrotation
					JOINT rshoulder
					{
						OFFSET -0.113228 0.046853 -0.008472
						CHANNELS 3 Zrotation Yrotation Xrotation
						JOINT relbow
						{
							OFFSET -0.260127 -0.014369 -0.031269
							CHANNELS 3 Zrotation Yrotation Xrotation
							JOINT rwrist
							{
								OFFSET -0.269108 0.006794 -0.006027
								CHANNELS 3 Zrotation Yrotation Xrotation
								End Site
								{
									OFFSET 0.000000 0.000000 0.000000
								}
							}
						}
					}
				}
			}
		}
	}
}
MOTION
Frames: 17
Frame Time: 0.033333
-1.530474 0.091125 1.000910 92.137661 -1.407210 88.778091 3.591505 -5.877570 -20.440614 -0.739217 -1.414084 7.099744 -1.854200 5.900128 4.381854 0.000000 -0.000000 0.000000 -1.476799 -2.053252 13.626688 1.030706 10.328659 10.799405 1.509120 -4.333675 -16.654784 0.000000 -0.000000 0.000000 -1.444679 6.212671 13.562141 1.545870 -1.939284 -5.029506 0.276940 -0.895203 -0.631000 5.453818 1.119984 -7.059213 -1.327292 -6.504166 12.424974 -31.900304 5.308769 -0.018189 -54.276178 -4.983822 10.157998 7.565663 -20.903347 3.650400 -5.892326 -4.400101 -4.778027 31.508580 2.315349 -0.839316 50.256898 8.967218 16.828938 -8.692019 17.285962 -4.474480 9.431287 4.090730 -2.616185 
-1.506657 0.098957 1.001363 92.805380 -1.309229 89.160954 3.353198 -5.766864 -20.820079 -1.723195 -1.474780 9.695319 -1.771858 5.814344 4.205290 0.000000 -0.000000 0.000000 -1.852670 -2.295372 14.262495 1.171695 10.326345 11.999394 2.110084 -4.359712 -15.410833 0.000000 -0.000000 0.000000 -1.198513 7.084341 12.264130 1.882847 -3.386236 -4.159495 0.172568 -1.061651 -0.770704 5.139818 0.704351 -6.701014 -1.314030 -6.322784 11.986419 -31.654469 5.348984 0.836674 -54.757260 -4.719605 10.257312 7.759052 -20.688894 3.766011 -6.046796 -4.367589 -5.124815 31.392546 2.232914 -0.487787 50.815965 8.234912 16.700361 -9.181807 16.581920 -4.638915 9.491959 3.959333 -3.082644 
-1.484708 0.107803 1.003558 92.406688 -1.777189 88.665728 2.815689 -6.091123 -19.734449 -2.886378 -1.013829 11.815609 -0.959149 6.230921 3.146356 0.000000 -0.000000 0.000000 -3.175047 -1.599287 14.549549 1.848354 10.186643 15.254316 3.034344 -3.617890 -13.850878 0.000000 -0.000000 0.000000 -1.751072 6.957881 11.160019 1.925805 -3.500930 -1.273612 0.036500 -0.459264 -1.196802 5.141032 0.734324 -7.094034 -1.334851 -6.216975 11.118251 -31.262264 4.473871 0.922610 -55.058190 -4.797790 10.293346 7.739080 -20.078629 3.991138 -7.013973 -3.309243 -5.385078 31.576199 2.849028 -0.222662 51.124731 8.104765 16.256372 -9.504900 15.702749 -5.883614 10.044447 2.686405 -3.898812 
-1.456301 0.121670 1.007802 92.643488 -2.030338 89.461822 1.395110 -5.632900 -19.310453 -3.493602 -2.494022 13.305525 0.575739 6.569780 1.680993 0.000000 -0.000000 0.000000 -4.622470 -1.385831 11.865691 3.184476 8.764727 21.756919 5.199155 -2.537292 -10.853350 0.000000 -0.000000 0.000000 -1.831453 5.446096 12.146107 1.622250 -1.673741 -4.780722 -0.113224 -0.717973 -0.451898 5.236683 0.205940 -6.938571 -1.752768 -5.971454 12.007628 -31.360294 5.564257 0.261547 -54.360554 -4.322135 10.199572 6.257889 -19.595880 5.607574 -7.763076 -3.276029 -4.164983 31.873312 0.745787 -1.035103 51.117680 6.311837 16.012595 -8.934364 15.161401 -6.525293 10.606357 2.137982 -3.446419 
-1.436024 0.129742 1.009509 92.899525 -2.165003 89.417800 0.714352 -6.448780 -17.899636 -3.759074 -2.506142 13.554110 2.111295 7.153883 0.558287 0.000000 -0.000000 0.000000 -5.544670 -1.249663 10.678678 4.159772 7.579903 26.140652 6.386099 -2.172760 -7.665387 0.000000 -0.000000 0.000000 -1.621786 5.804101 11.719245 1.778418 -1.910003 -4.953160 -0.372603 -1.125689 -0.221494 4.935602 -0.043266 -6.359417 -1.683464 -5.485035 11.945252 -31.459254 5.808317 0.443349 -54.112900 -4.214408 10.438239 6.024839 -20.084684 5.900159 -7.888948 -3.750485 -3.728041 31.573749 0.209655 -0.656978 51.300784 5.418005 15.941079 -8.863770 14.883254 -6.619433 11.036185 2.023040 -3.563675 
-1.408270 0.138386 1.011305 94.070948 -1.676658 89.261292 -0.081520 -6.489150 -15.967570 -3.572862 -3.608316 13.740237 3.872506 7.232513 -0.255614 0.000000 -0.000000 0.000000 -5.868678 -2.717452 7.957428 4.787586 5.872479 33.208648 7.116394 -2.253987 -1.272559 0.000000 -0.000000 0.000000 -0.679687 6.487965 10.436384 2.158949 -3.548498 -4.155082 -0.594607 -1.328241 -0.387247 4.204237 -1.122353 -4.772225 -1.313897 -4.733327 10.972591 -31.321322 5.527659 1.127296 -54.262155 -4.371222 10.471322 5.902436 -20.046036 6.444619 -8.878218 -3.509656 -3.957045 31.116270 -0.109884 -0.166286 51.486380 4.368828 15.524643 -8.959560 14.255430 -6.278529 11.762720 1.906836 -3.463383 
-1.387152 0.147335 1.012600 93.003064 -2.247651 88.963889 -1.474825 -5.803995 -13.757598 -3.802611 -4.255146 13.350113 5.593481 8.465479 -1.088344 0.000000 -0.000000 0.000000 -7.307432 -1.523492 2.930197 5.273138 3.927870 42.907551 7.517463 -2.226603 5.045773 0.000000 -0.000000 0.000000 -1.367339 4.437574 11.373770 1.832052 -1.175909 -4.851345 -0.674093 -1.301609 0.034059 4.381147 -1.145955 -5.526270 -1.628303 -3.903998 11.231167 -31.022396 5.515842 0.680086 -53.903122 -4.814135 10.295803 5.356905 -20.599107 7.364109 -9.561173 -3.559793 -3.601740 31.231852 -0.357103 -0.243527 51.327822 4.290354 15.920845 -8.557885 13.924445 -6.384032 12.195760 1.704359 -2.426364 
-1.362719 0.154743 1.013446 92.923886 -2.468991 88.209811 -2.255514 -4.970968 -10.788833 -4.240075 -5.039199 12.781325 6.816019 8.868679 -2.421897 0.000000 -0.000000 0.000000 -8.178657 -1.793984 -1.119943 4.771386 2.358766 50.765308 8.317617 -3.065806 12.726647 0.000000 -0.000000 0.000000 -1.578332 3.328499 12.115910 1.767155 -0.579371 -4.793147 -0.756481 -1.403452 0.059122 4.226929 -1.410094 -5.270147 -1.515673 -2.982270 11.317662 -31.126963 5.236858 0.761656 -53.284204 -5.603990 9.838406 5.016906 -21.142559 7.421648 -9.842008 -3.385539 -2.975056 31.355373 -0.674013 -0.427460 51.227030 3.986996 16.137021 -8.233676 13.869226 -6.408120 12.795396 1.576835 -1.562066 
-1.339112 0.160911 1.014519 92.739048 -2.564250 87.610419 -2.861112 -3.721044 -7.937007 -4.572600 -6.406801 11.968260 8.054065 9.473973 -3.529811 0.000000 -0.000000 0.000000 -8.665240 -1.790044 -5.364195 4.015779 0.588759 57.228770 8.108233 -5.400564 19.627016 0.000000 -0.000000 0.000000 -1.720872 1.994128 12.362719 1.703229 0.130044 -4.487112 -0.790304 -1.466254 0.088253 4.129187 -1.681863 -4.965351 -1.624282 -2.030958 11.310376 -31.505998 4.530801 1.090633 -52.513924 -6.592821 9.325772 5.058154 -21.183571 6.739599 -10.066354 -2.848303 -2.519748 31.605841 -0.313395 0.137323 51.117197 3.744910 16.361673 -8.452190 13.964832 -7.076779 12.994773 1.377873 -1.098979 
-1.313171 0.165581 1.017000 92.951686 -2.065925 86.753777 -2.882884 -2.572645 -4.221889 -4.479990 -8.149072 10.522156 7.698353 10.252366 -4.680570 0.000000 -0.000000 0.000000 -7.965688 -0.820002 -10.096664 3.579352 -2.570202 63.205460 5.762457 -6.683497 11.079992 0.000000 -0.000000 0.000000 -1.446420 0.191118 13.591403 1.787167 0.476094 -4.638606 -0.841901 -1.849655 0.269263 4.759704 0.023376 -5.194486 -2.196397 -1.986472 11.953493 -31.530903 3.317569 0.739503 -52.183994 -7.770233 9.104361 5.602502 -20.604263 5.629346 -9.484858 -2.866050 -2.173712 31.891072 0.560342 0.012062 51.264930 3.589058 16.369614 -8.873639 14.085073 -7.333407 13.118136 0.983069 -1.222209 
-1.291112 0.168865 1.019822 94.002093 -1.389107 86.378695 -2.618853 -1.953739 -1.663813 -4.148937 -9.994164 9.755216 7.395643 10.430871 -5.699443 0.000000 -0.000000 0.000000 -7.237257 -1.031643 -13.187776 3.711782 -4.461945 64.144987 4.873185 -5.779750 3.423213 0.000000 -0.000000 0.000000 -0.779456 -1.006458 13.953618 2.039197 -0.227706 -4.763592 -0.843855 -2.223738 0.173755 4.975975 1.032946 -4.577975 -2.424046 -2.101437 11.960504 -31.630068 2.516047 0.474057 -52.016949 -8.304457 8.995921 6.057153 -20.592751 4.689995 -8.763893 -2.392223 -1.584206 31.832890 0.654607 -0.095098 51.314838 3.094421 15.874130 -9.031072 15.059324 -6.938995 13.216980 1.004771 -1.408779 
-1.268737 0.170735 1.022391 94.547948 -0.547752 86.264063 -1.915639 -1.201545 0.945542 -3.702402 -11.397224 8.404087 6.989692 10.471027 -6.772442 0.000000 -0.000000 0.000000 -6.362052 -0.984883 -16.113105 4.375791 -5.898446 61.957942 4.550195 -5.330943 -1.872183 0.000000 -0.000000 0.000000 -0.087001 -2.034407 14.218284 2.301083 -0.463056 -4.924518 -0.703104 -2.515605 0.080765 4.978190 1.979251 -4.570281 -2.387744 -2.027315 11.906459 -31.751419 1.925036 0.329528 -51.936206 -8.782495 9.205682 6.282250 -21.178960 4.627677 -8.171489 -2.571302 -1.045807 31.773602 0.503963 0.074771 51.169866 2.493052 15.313377 -9.166847 16.539528 -6.470910 13.309941 0.852303 -1.842099 
-1.248606 0.171527 1.022931 94.338950 -0.074837 86.415338 -1.467253 -0.443538 3.054731 -3.158319 -11.782313 7.001794 6.442761 10.323273 -7.735592 0.000000 -0.000000 0.000000 -5.856682 -0.294972 -19.590293 4.475301 -7.077047 57.993137 4.123376 -5.736802 -5.171154 0.000000 -0.000000 0.000000 0.282560 -3.032160 14.462130 2.301645 -0.181394 -5.113328 -0.558055 -2.786434 -0.034656 5.133142 2.743355 -4.831074 -2.460608 -2.046710 12.102823 -31.410490 1.520943 0.267971 -52.096037 -9.534443 9.384272 6.537670 -21.999372 4.195954 -7.687724 -2.971185 -1.163694 31.593147 0.558834 0.199217 51.331605 2.458292 15.444896 -9.187791 17.511799 -6.228898 12.999919 0.938750 -2.199222 
-1.228581 0.171233 1.021928 93.538516 0.135606 86.660050 -1.116498 0.020679 5.251346 -2.895120 -12.000725 5.336360 6.063272 10.835552 -8.551317 0.000000 -0.000000 0.000000 -5.570720 0.361471 -22.528531 4.239153 -7.671717 51.699623 4.062335 -6.940824 -6.027481 0.000000 -0.000000 0.000000 0.159170 -3.478691 14.644368 2.250116 0.349194 -5.252161 -0.167459 -2.991644 -0.035068 5.215493 3.546014 -5.299935 -2.297352 -1.677466 12.493519 -31.106328 1.218923 0.036124 -52.259438 -10.634958 9.554598 6.437556 -22.776974 3.507395 -6.912952 -3.175227 -1.473032 31.601463 0.559723 0.428612 51.393415 2.566089 15.894297 -9.672574 18.677126 -6.351790 11.956431 1.668827 -2.122936 
-1.208260 0.170276 1.020232 93.227422 0.371259 86.996844 -0.684303 0.758632 6.968116 -2.606866 -12.429534 4.306752 5.315684 10.738136 -9.472387 0.000000 -0.000000 0.000000 -5.282433 1.137144 -24.427278 4.050122 -7.647894 43.228106 3.954174 -7.182913 -4.687240 0.000000 -0.000000 0.000000 0.050514 -4.177955 15.179028 2.087222 0.648935 -5.763700 0.282973 -2.968500 -0.084086 5.140031 3.805437 -5.864887 -1.950822 -1.395949 12.739349 -30.915044 1.053877 -0.127182 -52.383909 -11.546638 9.816982 6.522403 -23.803619 3.129359 -6.370134 -3.971933 -1.772184 31.625465 0.255224 0.070422 51.439662 2.620425 16.237068 -9.493225 19.158735 -6.101396 11.395783 2.003472 -2.203762 
-1.187093 0.168041 1.017293 92.660365 0.613729 87.854766 0.085455 1.093773 8.010495 -2.788625 -12.087743 3.503183 5.448427 10.542726 -10.354727 0.000000 -0.000000 0.000000 -4.868055 2.465963 -26.197225 4.648682 -4.737690 33.218784 1.456020 -7.718115 3.761407 0.000000 -0.000000 0.000000 0.347847 -4.336283 14.188048 2.140461 0.815141 -5.168455 0.358846 -3.076518 -0.456307 4.508077 3.163528 -5.938497 -1.302719 -0.442463 12.411795 -31.220913 0.926952 0.124033 -52.047380 -12.439017 10.085114 6.655744 -24.833772 3.094474 -5.911166 -5.037791 -1.982144 31.443273 0.134776 0.517533 51.672636 2.960588 16.907415 -9.626697 19.251101 -6.403502 11.016358 2.201753 -2.774463 
-1.165437 0.166132 1.014023 92.691607 0.401246 88.251132 -0.050474 1.462934 9.418561 -2.342888 -12.557399 3.077711 4.142723 10.400576 -11.494050 0.000000 -0.000000 0.000000 -5.144166 3.425035 -26.147095 2.881692 -3.723074 22.508488 6.349789 -7.636177 1.872912 0.000000 -0.000000 0.000000 0.127921 -4.815196 14.559417 1.770683 0.891826 -5.921383 0.673243 -2.925377 -0.131265 4.719144 3.765883 -6.934494 -1.290822 -0.933286 12.699695 -30.751990 1.030855 -0.538895 -52.807156 -13.560009 10.591396 6.578564 -25.067691 2.463010 -5.027042 -5.486391 -1.486104 31.397623 -0.190577 0.256576 51.845519 2.992668 17.280570 -9.519840 19.322327 -6.628989 10.597565 2.586691 -2.888468 
